<svg xmlns="http://www.w3.org/2000/svg" xmlns:xlink="http://www.w3.org/1999/xlink" version="1.1" x="0px" y="0px" viewBox="0 0 50 62.5" enable-background="new 0 0 50 50" xml:space="preserve"><g><path d="M26.1,4.4c0.7,0,1.2-0.6,1.2-1.2s-0.6-1.2-1.2-1.2c-7.1,0-12.9,5.8-12.9,12.9c0,6.8,5.3,12.4,11.9,12.9   c0.3,0,0.7,0.1,1,0.1h2.9c0.8,0,1.6,0.7,2.7,1.8c0.5,0.5,1,1,1.6,1.4c1.4,1.1,2.8,1.9,3.5,2.3c0.1,0.2,0.1,0.4,0.1,0.7   c0,0.3-0.1,0.4-0.2,0.5c0,0-0.2,0.1-0.4,0.1c-2.2,0-4.2,0.4-6,0.7c-1.5,0.3-3,0.6-4.3,0.6c-1,0-1.3-0.4-1.4-0.5   c-0.5-0.6-0.4-1.6-0.3-2c0.1-0.7-0.3-1.3-1-1.5c-0.7-0.1-1.3,0.3-1.5,1c-0.1,0.2-0.5,2.5,0.8,4c0.5,0.6,1.5,1.4,3.3,1.4   c0.2,0,0.5,0,0.7,0c-0.6,2-0.9,5.3,1.1,9.2c0.2,0.4,0.7,0.7,1.1,0.7c0.2,0,0.4,0,0.6-0.1c0.6-0.3,0.9-1.1,0.6-1.7   c-2.1-4.1-1-7.3-0.5-8.4c0.4-0.1,0.9-0.2,1.3-0.2c1.8-0.3,3.6-0.7,5.5-0.7c1,0,1.8-0.3,2.4-1c0.5-0.6,0.7-1.3,0.7-2.1   c0-1.3-0.6-2.2-0.6-2.3c-0.1-0.2-0.3-0.3-0.5-0.4c0,0-1.8-0.9-3.5-2.2c-0.5-0.4-1-0.8-1.4-1.3c-1.3-1.2-2.6-2.5-4.4-2.5h-2.9   c-0.3,0-0.5,0-0.8,0c-3.8-0.4-6.7-3.6-6.7-7.5c0-4.1,3.4-7.5,7.5-7.5c0.7,0,1.2-0.6,1.2-1.2s-0.6-1.2-1.2-1.2c-5.5,0-10,4.5-10,10   c-0.3-0.9-0.4-1.9-0.4-2.9C15.7,9,20.4,4.4,26.1,4.4z"/><path d="M15.8,34.3c-1.1,2.3-2.6,6.6-2.6,12.6c0,0.7,0.6,1.2,1.2,1.2c0.7,0,1.2-0.6,1.2-1.2c0-8.2,3.2-12.9,3.2-13   c0.3-0.4,0.3-0.9,0.1-1.3c-0.2-0.4-0.6-0.7-1.1-0.7C13,32,13,29.9,13,28.9c0-0.6,0.3-1,0.9-1.1l3.5,1.9c0.6,0.3,1.4,0.1,1.7-0.5   c0.3-0.6,0.1-1.4-0.5-1.7l-3.9-2c-0.2-0.1-0.4-0.1-0.6-0.1c-2.1,0-3.7,1.6-3.7,3.7C10.5,31.1,11.5,33.7,15.8,34.3z"/></g><text x="0" y="65" fill="#000000" font-size="5px" font-weight="bold" font-family="'Helvetica Neue', Helvetica, Arial-Unicode, Arial, Sans-serif">Created by Focus Lab</text><text x="0" y="70" fill="#000000" font-size="5px" font-weight="bold" font-family="'Helvetica Neue', Helvetica, Arial-Unicode, Arial, Sans-serif">from the Noun Project</text></svg>