<svg xmlns="http://www.w3.org/2000/svg" xmlns:xlink="http://www.w3.org/1999/xlink" version="1.1" x="0px" y="0px" viewBox="0 0 100 125" enable-background="new 0 0 100 100" xml:space="preserve"><path d="M85.228,58.529c-3.63-2.096-8.005-1.703-11.177,0.632L58.182,50l18.664-10.775l5.04-7.634l-9.131,0.548L54.091,42.914  V24.591c3.609-1.58,6.136-5.172,6.136-9.364C60.227,9.579,55.648,5,50,5S39.773,9.579,39.773,15.227  c0,4.192,2.527,7.784,6.136,9.364v18.323l-15.869-9.162c0.437-3.915-1.411-7.9-5.041-9.996c-4.892-2.824-11.147-1.148-13.971,3.744  c-2.824,4.892-1.148,11.146,3.744,13.971c3.63,2.096,8.005,1.703,11.177-0.632L41.818,50L23.155,60.775l-5.04,7.634l9.131-0.548  l18.664-10.775v18.323c-3.609,1.579-6.136,5.172-6.136,9.364C39.773,90.421,44.352,95,50,95s10.227-4.579,10.227-10.227  c0-4.192-2.527-7.785-6.136-9.364V57.086l15.869,9.162c-0.437,3.915,1.411,7.9,5.041,9.996c4.892,2.824,11.147,1.148,13.971-3.743  C91.795,67.608,90.119,61.353,85.228,58.529z"/><text x="0" y="115" fill="#000000" font-size="5px" font-weight="bold" font-family="'Helvetica Neue', Helvetica, Arial-Unicode, Arial, Sans-serif">Created by Christopher T. Howlett</text><text x="0" y="120" fill="#000000" font-size="5px" font-weight="bold" font-family="'Helvetica Neue', Helvetica, Arial-Unicode, Arial, Sans-serif">from the Noun Project</text></svg>