<svg xmlns="http://www.w3.org/2000/svg" xmlns:xlink="http://www.w3.org/1999/xlink" version="1.1" x="0px" y="0px" viewBox="0 0 100 125" style="enable-background:new 0 0 100 100;" xml:space="preserve"><g><path d="M80.3,67c-3.4-3.1-5.6-7.5-5.6-12.5c0-3.1-1.5-18.6-12.8-18.9c-9.1,0-8.6,2.1-17.1,2.1   c-4.6,0-8.3-3.7-8.3-8.3c0-1.7,0.5-3.4,1.5-4.7c2.5-0.7,4.5-2.7,5.2-5.3c10.1-0.6,17.7,7.3,21.4,6.4c1.3-0.3,0.8-0.6,0.7-0.5   c-1.1,0.3-2.9-0.9-10.1-5.8c-2-1.4-4-2.3-5.9-2.8c9.1,0.7,16.5,6.1,20,4.8c1.4-0.6,0.9-0.8,0.8-0.7c-1.2,0.5-3.6-0.7-12.6-5.4   c-7.5-4-13.9-3-18.5-1.6c-0.1,0-0.1-0.1-0.2-0.1c-1.9-1.3-3.5-0.7-4.4-1.2c-0.8-0.4-3.9-2-5.3-2.9C28.6,9.3,28.1,9,27.5,9   c-1.2,0-2.3,1.2-2.3,2.4c0,0.2,0.5,1.5,0.5,1.5c0.7,2.3,1.7,4.3,2.9,5.9c-4.1,4.1-6.6,9.9-6.6,16.3c0,5.8,2.1,11.1,5.6,15.1   c-3.4,3.4-8.5,8.9-9.4,9.8c-1.3,1.3-1.6,4.2-0.8,5.1c0.6,0.6,11.5,10.3,12.7,11.5c0.4,0.4,0.7,0.1,1-0.1c0.3-0.2,0.5-0.8,0.5-0.8   c-0.5-0.3-9.2-8.6-10.4-9.8c-1.3-1.3-1.8-3.3,1.5-5.3c2.2-1.4,7.2-3.4,10.3-4.7c1.4,4.4,3.8,11.7,5.2,15c2.1,4.9,5.2,21.3,5.6,21.6   c0.4,0.3,1.1,0,1.4,0c0.3,0-3.4-18.7-4.1-19.3c-1.8-1.8-1.7-12.8-0.7-17.7c3,1.2,6.3,1.8,9.7,1.8c2.9,0,5.8-0.5,8.4-1.4   c2.5,4.9,5.7,11.2,6.2,12c0.7,1.3,1.4,3.6,0,7.3c-1.4,3.7-7.5,16.9-7.1,17.2c0.3,0.3,1.2,0,1.2,0s10.2-19.7,10.8-21.1   c0.8-1.6,1-2.1,0.4-3.1c-1.7-3.1-2.4-6.4-2.3-9.7C72,65.1,77.9,68,79,70.4c1.3,3.1,3.3,21.7,3.6,22c0.3,0.3,1.4,0,1.4,0   S81.8,68.3,80.3,67z"/></g><text x="0" y="115" fill="#000000" font-size="5px" font-weight="bold" font-family="'Helvetica Neue', Helvetica, Arial-Unicode, Arial, Sans-serif">Created by Mood Design Studio</text><text x="0" y="120" fill="#000000" font-size="5px" font-weight="bold" font-family="'Helvetica Neue', Helvetica, Arial-Unicode, Arial, Sans-serif">from the Noun Project</text></svg>