<svg xmlns="http://www.w3.org/2000/svg" xmlns:xlink="http://www.w3.org/1999/xlink" version="1.1" x="0px" y="0px" viewBox="0 0 100 125" enable-background="new 0 0 100 100" xml:space="preserve"><g><g><path d="M86.7,36.2v-2.8l-2.8-2.8l-1.4-1.4L70.8,17.5l4.2-4.2h-2.8L68,17.5l-5.1,5.1l-5.1-5.1l4.2-4.2h-2.8l-2.8,2.8l-2.8-2.8    h-2.8l4.2,4.2l1.4,1.4l6.5,6.5l5.1,5.1L63,35.6L40.7,13.3h-2.8L61.5,37v0l-5.1,5.1L31.9,17.5v0l4.2-4.2h-2.8l-2.8,2.8l-1.4,1.4    L22.6,24l-5.1,5.1l-4.2-4.2v2.8l4.2,4.2l5.1,5.1l-5.1,5.1l-4.3,4.3v2.8l4.3-4.2l1.4-1.4v0l6.5-6.5l5.1-5.1l5.1,5.1v0L13.3,59.3    v2.8L37,38.5l5.1,5.1L17.6,68l-4.3-4.2v2.8l2.8,2.8l1.4,1.4l6.5,6.5l5.1,5.1L25,86.7h2.8l4.2-4.2l5.1-5.1l5.1,5.1L38,86.7h2.8    l2.8-2.8l2.8,2.8h2.8L37.1,74.6L32,69.5l0,0l5.1-5.1h0l22.3,22.3h2.8L38.5,63l0,0h0l5.1-5.1l0,0l24.6,24.6l-4.2,4.2h2.8l2.8-2.8    l1.4-1.4l6.5-6.5l5.1-5.1l4.2,4.2v-2.8l-4.2-4.2L77.3,63l5.1-5.1l0,0l4.2,4.2v-2.8l-2.8-2.8l2.8-2.8v-2.8l-4.3,4.3L81,56.5    L74.5,63L69.4,68L64.4,63l22.3-22.3v-2.8L63,61.6l-5.1-5.1L82.4,32L86.7,36.2z M64.3,24l5.1-5.1l5.1,5.1l-5.1,5.1L64.3,24z     M24.1,35.6l-5.1-5.1l5.1-5.1l5.1,5.1L24.1,35.6z M37,35.6l-6.5-6.5L25.4,24l5.1-5.1h0l24.6,24.6L50,48.6l-5.1-5.1l-1.4-1.4    L37,35.6z M35.7,76l-5.1,5.1l-5.1-5.1l5.1-5.1L35.7,76z M43.5,55.1l-1.4,1.4L37,61.6L35.6,63l-6.5,6.5l-5.1,5.1L19,69.5v0    l24.5-24.5l5.1,5.1L43.5,55.1z M75.9,64.4l5.1,5.1L76,74.6l-5.1-5.1L75.9,64.4z M61.5,63l1.4,1.4L74.6,76l-5.1,5.1v0L44.9,56.5v0    l5.1-5.1h0v0l5.1,5.1L61.5,63z M56.5,55.1L51.4,50l5.1-5.1l1.4-1.4l5.1-5.1l1.4-1.4l11.5-11.5l5.1,5.1L56.5,55.1z"/></g><polygon points="23.1,13.3 13.3,23.1 13.3,20.3 20.3,13.3  "/><polygon points="86.7,20.4 86.7,23.3 76.7,13.3 79.6,13.3  "/><polygon points="86.7,76.9 86.7,79.7 79.7,86.7 76.9,86.7  "/><polygon points="23.3,86.7 20.4,86.7 13.3,79.6 13.3,76.7  "/></g><text x="0" y="115" fill="#000000" font-size="5px" font-weight="bold" font-family="'Helvetica Neue', Helvetica, Arial-Unicode, Arial, Sans-serif">Created by Guillermo Guso</text><text x="0" y="120" fill="#000000" font-size="5px" font-weight="bold" font-family="'Helvetica Neue', Helvetica, Arial-Unicode, Arial, Sans-serif">from the Noun Project</text></svg>